<?xml version="1.0" standalone="no"?>
<!DOCTYPE svg PUBLIC "-//W3C//DTD SVG 20010904//EN"
 "http://www.w3.org/TR/2001/REC-SVG-20010904/DTD/svg10.dtd">
<svg version="1.0" xmlns="http://www.w3.org/2000/svg"
 width="1024.000000pt" height="1024.000000pt" viewBox="0 0 1024.000000 1024.000000"
 preserveAspectRatio="xMidYMid meet">
<metadata>
Created by potrace 1.14, written by Peter Selinger 2001-2017
</metadata>
<g transform="translate(0.000000,1024.000000) scale(0.100000,-0.100000)"
fill="#000000" stroke="none">
<path d="M5148 8394 c6 -3 12 -12 12 -20 0 -8 5 -14 10 -14 6 0 10 -9 10 -19
0 -11 4 -21 8 -23 14 -6 109 -210 141 -307 50 -146 65 -225 86 -441 8 -85 17
-160 19 -166 2 -6 39 -17 83 -23 43 -7 121 -24 173 -38 52 -14 107 -28 123
-30 15 -3 30 -9 33 -14 3 -5 16 -9 30 -9 13 0 24 -4 24 -10 0 -5 11 -10 24
-10 14 0 28 -4 31 -10 3 -5 15 -10 26 -10 10 0 19 -4 19 -10 0 -5 9 -10 20
-10 11 0 35 -9 55 -20 20 -11 42 -20 49 -20 8 0 16 -3 18 -7 2 -5 26 -19 53
-33 28 -14 52 -27 55 -30 3 -3 25 -16 50 -29 25 -14 47 -28 50 -31 3 -4 16
-13 29 -20 14 -7 30 -17 35 -22 6 -5 40 -30 76 -56 36 -25 67 -49 70 -52 3 -3
30 -25 60 -50 30 -25 93 -84 140 -131 88 -89 92 -94 150 -169 19 -25 38 -47
41 -50 4 -3 28 -36 53 -75 25 -38 50 -75 56 -82 6 -7 15 -24 22 -38 6 -14 15
-25 20 -25 4 0 8 -9 8 -20 0 -11 4 -20 8 -20 5 0 14 -16 22 -35 8 -19 17 -35
22 -35 4 0 8 -9 8 -20 0 -11 5 -20 10 -20 6 0 10 -9 10 -20 0 -11 5 -20 10
-20 6 0 10 -9 10 -20 0 -11 5 -20 10 -20 6 0 10 -11 10 -24 0 -14 5 -28 10
-31 6 -3 10 -15 10 -25 0 -10 3 -20 8 -22 7 -3 55 -143 80 -233 85 -306 103
-693 46 -999 -31 -163 -78 -341 -104 -388 -6 -10 -10 -27 -10 -38 0 -11 -4
-20 -10 -20 -5 0 -10 -7 -10 -15 0 -8 -4 -24 -10 -35 -5 -11 -14 -29 -20 -40
-5 -11 -10 -27 -10 -35 0 -8 -4 -15 -10 -15 -5 0 -10 -9 -10 -19 0 -11 -3 -21
-7 -23 -5 -1 -19 -25 -33 -53 -14 -27 -27 -52 -30 -55 -3 -3 -16 -25 -29 -50
-14 -25 -28 -47 -31 -50 -4 -3 -13 -16 -20 -29 -7 -14 -17 -30 -21 -35 -5 -6
-41 -54 -82 -106 -40 -52 -82 -106 -92 -119 -35 -43 -180 -185 -215 -211 -18
-14 -38 -30 -44 -36 -6 -6 -45 -36 -86 -67 -41 -31 -80 -61 -86 -66 -5 -4 -21
-14 -35 -21 -13 -7 -26 -16 -29 -19 -5 -6 -81 -49 -117 -66 -13 -5 -23 -13
-23 -17 0 -5 -9 -8 -20 -8 -11 0 -20 -4 -20 -10 0 -5 -9 -10 -20 -10 -11 0
-20 -4 -20 -10 0 -5 -9 -10 -20 -10 -11 0 -20 -4 -20 -10 0 -5 -9 -10 -19 -10
-11 0 -23 -4 -26 -10 -3 -5 -15 -10 -26 -10 -10 0 -19 -4 -19 -8 0 -5 -23 -15
-51 -22 -27 -8 -52 -18 -55 -22 -3 -4 -14 -8 -25 -8 -10 0 -27 -4 -37 -9 -9
-5 -37 -15 -62 -21 -25 -7 -56 -16 -70 -20 -29 -10 -221 -46 -300 -57 l-55 -8
-6 -190 c-8 -246 -42 -435 -108 -600 -18 -44 -34 -81 -42 -97 -5 -10 -9 -25
-9 -33 0 -8 -4 -15 -10 -15 -5 0 -10 -8 -10 -18 0 -10 -6 -24 -12 -31 -25 -25
331 4 592 48 160 28 463 114 560 160 8 4 36 14 63 22 26 7 47 17 47 21 0 4 9
8 20 8 11 0 20 5 20 10 0 6 9 10 20 10 11 0 20 5 20 10 0 6 7 10 15 10 8 0 30
9 50 20 20 11 42 20 49 20 8 0 16 3 18 8 3 6 55 36 115 66 13 6 23 14 23 19 0
4 9 7 20 7 11 0 20 5 20 10 0 6 4 10 10 10 12 0 205 124 233 150 11 11 25 20
30 20 5 0 17 8 26 18 9 10 32 29 51 42 19 13 46 36 60 50 14 14 41 37 60 50
45 32 298 285 330 330 13 19 36 46 50 60 14 14 37 41 50 60 13 19 32 42 42 51
10 9 18 21 18 26 0 5 9 19 20 30 26 28 150 221 150 233 0 6 5 10 10 10 6 0 10
9 10 20 0 11 4 20 9 20 5 0 14 13 21 30 7 16 16 30 21 30 5 0 9 9 9 20 0 11 5
20 10 20 6 0 10 9 10 20 0 11 5 20 10 20 6 0 10 9 10 20 0 11 3 20 8 20 4 0
13 15 20 33 8 17 22 49 33 70 10 22 19 45 19 53 0 8 4 14 8 14 4 0 14 21 21
48 8 26 17 49 21 52 8 7 94 267 115 348 75 294 99 501 99 842 0 332 -25 547
-94 824 -18 70 -113 361 -120 366 -4 3 -13 26 -21 53 -7 26 -17 47 -21 47 -4
0 -8 7 -8 15 0 8 -9 30 -20 50 -11 20 -20 42 -20 50 0 8 -4 15 -10 15 -5 0
-10 9 -10 20 0 11 -4 20 -10 20 -5 0 -10 9 -10 20 0 11 -4 20 -10 20 -5 0 -10
9 -10 20 0 11 -4 20 -10 20 -5 0 -10 9 -10 20 0 11 -4 20 -8 20 -4 0 -19 22
-33 50 -13 27 -27 50 -31 50 -5 0 -8 4 -8 10 0 10 -127 211 -139 220 -4 3 -18
21 -31 40 -13 19 -27 37 -30 40 -3 3 -17 21 -30 40 -13 19 -36 46 -50 60 -14
14 -37 41 -50 60 -32 45 -285 298 -330 330 -19 13 -46 36 -60 50 -14 14 -41
37 -60 50 -19 13 -37 27 -40 30 -3 3 -21 17 -40 30 -19 13 -37 27 -40 31 -9
12 -210 139 -220 139 -6 0 -10 5 -10 10 0 6 -9 10 -20 10 -11 0 -20 4 -20 9 0
5 -13 14 -30 21 -16 7 -30 16 -30 21 0 5 -9 9 -20 9 -11 0 -20 5 -20 10 0 6
-9 10 -20 10 -11 0 -20 5 -20 10 0 6 -9 10 -20 10 -11 0 -20 5 -20 10 0 6 -9
10 -20 10 -11 0 -20 5 -20 10 0 6 -9 10 -19 10 -11 0 -23 5 -26 10 -3 6 -15
10 -26 10 -10 0 -19 5 -19 10 0 6 -9 10 -20 10 -11 0 -20 4 -20 8 0 4 -21 14
-47 21 -27 8 -50 17 -53 20 -6 8 -183 68 -275 93 -163 45 -261 67 -405 89
-160 25 -519 49 -482 33z"/>
<path d="M4605 8360 c-134 -21 -233 -42 -390 -85 -77 -21 -267 -85 -280 -95
-5 -4 -31 -13 -57 -21 -27 -7 -48 -17 -48 -21 0 -4 -9 -8 -20 -8 -11 0 -20 -4
-20 -10 0 -5 -9 -10 -19 -10 -11 0 -23 -4 -26 -10 -3 -5 -15 -10 -26 -10 -10
0 -19 -4 -19 -10 0 -5 -9 -10 -20 -10 -11 0 -20 -4 -20 -10 0 -5 -9 -10 -20
-10 -11 0 -20 -4 -20 -10 0 -5 -9 -10 -19 -10 -11 0 -21 -3 -23 -7 -4 -10 -57
-42 -80 -50 -10 -3 -18 -9 -18 -14 0 -5 -7 -9 -15 -9 -9 0 -21 -4 -28 -10 -7
-5 -76 -52 -155 -105 -79 -52 -154 -106 -168 -120 -14 -14 -29 -25 -34 -25 -5
0 -30 -20 -54 -45 -25 -25 -48 -45 -51 -45 -19 0 -335 -316 -335 -335 0 -3
-20 -26 -45 -51 -25 -24 -45 -49 -45 -54 0 -5 -11 -20 -25 -34 -14 -14 -68
-89 -120 -168 -53 -79 -100 -148 -105 -155 -6 -7 -10 -19 -10 -27 0 -8 -3 -16
-7 -18 -10 -4 -42 -57 -50 -80 -3 -10 -9 -18 -14 -18 -5 0 -9 -9 -9 -20 0 -11
-4 -20 -10 -20 -5 0 -10 -9 -10 -20 0 -11 -4 -20 -10 -20 -5 0 -10 -9 -10 -20
0 -11 -4 -20 -10 -20 -5 0 -10 -9 -10 -19 0 -11 -4 -23 -10 -26 -6 -3 -10 -15
-10 -26 0 -10 -4 -19 -10 -19 -5 0 -10 -9 -10 -20 0 -11 -4 -20 -8 -20 -4 0
-14 -21 -21 -47 -8 -27 -17 -52 -21 -58 -30 -40 -131 -393 -161 -560 -43 -239
-53 -352 -53 -620 0 -358 28 -577 119 -910 21 -77 85 -267 95 -280 4 -5 13
-31 21 -57 7 -27 17 -48 21 -48 4 0 8 -9 8 -20 0 -11 5 -20 10 -20 6 0 10 -9
10 -19 0 -11 5 -23 10 -26 6 -3 10 -15 10 -26 0 -10 5 -19 10 -19 6 0 10 -9
10 -20 0 -11 5 -20 10 -20 6 0 10 -9 10 -20 0 -11 5 -20 10 -20 6 0 10 -9 10
-20 0 -11 5 -20 10 -20 6 0 10 -7 10 -15 0 -9 9 -25 20 -37 11 -12 20 -28 20
-35 0 -7 5 -13 10 -13 6 0 10 -9 10 -19 0 -11 3 -21 8 -23 4 -1 25 -32 47 -68
50 -83 154 -230 177 -251 10 -9 18 -21 18 -27 0 -5 23 -33 50 -61 28 -28 50
-53 50 -56 0 -16 314 -335 330 -335 6 0 33 -23 61 -50 28 -27 56 -50 61 -50 6
0 18 -8 27 -18 22 -24 171 -130 251 -178 36 -21 67 -42 68 -46 2 -5 12 -8 23
-8 10 0 19 -4 19 -9 0 -5 14 -14 30 -21 17 -7 30 -16 30 -21 0 -5 9 -9 20 -9
11 0 20 -4 20 -10 0 -5 9 -10 20 -10 11 0 20 -4 20 -10 0 -5 9 -10 20 -10 11
0 20 -4 20 -10 0 -5 9 -10 20 -10 11 0 20 -4 20 -10 0 -5 9 -10 19 -10 11 0
23 -4 26 -10 3 -5 15 -10 26 -10 10 0 19 -4 19 -10 0 -5 9 -10 20 -10 11 0 20
-4 20 -8 0 -4 21 -14 48 -21 26 -8 49 -17 52 -20 10 -13 286 -99 410 -129 134
-32 163 -37 272 -52 38 -5 72 -11 77 -14 14 -9 41 4 41 20 0 8 5 14 10 14 6 0
10 9 10 20 0 11 5 20 10 20 6 0 10 9 10 19 0 11 5 23 10 26 6 3 10 15 10 25 0
10 4 20 8 22 15 6 74 199 100 328 34 161 45 437 20 458 -7 5 -44 13 -83 17
-88 8 -241 38 -342 66 -43 12 -88 23 -101 26 -12 3 -25 9 -28 14 -3 5 -16 9
-29 9 -13 0 -26 4 -29 8 -3 4 -28 14 -55 22 -28 7 -51 17 -51 22 0 4 -9 8 -20
8 -11 0 -20 5 -20 10 0 6 -6 10 -14 10 -7 0 -49 19 -92 41 -44 23 -89 47 -101
53 -13 6 -23 14 -23 19 0 4 -9 7 -20 7 -11 0 -20 4 -20 8 0 5 -11 14 -25 20
-14 7 -31 16 -38 22 -7 6 -48 37 -92 70 -44 34 -93 71 -109 83 -94 70 -306
302 -402 437 -21 30 -41 57 -44 60 -9 9 -41 65 -47 83 -3 9 -8 17 -12 17 -4 0
-13 16 -21 35 -8 19 -17 35 -22 35 -4 0 -8 9 -8 20 0 11 -4 20 -10 20 -5 0
-10 9 -10 20 0 11 -4 20 -10 20 -5 0 -10 9 -10 20 0 11 -4 20 -10 20 -5 0 -10
9 -10 20 0 11 -4 20 -8 20 -4 0 -14 21 -21 48 -8 26 -17 49 -20 52 -10 8 -67
188 -91 285 -35 143 -48 233 -61 407 -11 141 -10 186 4 333 22 216 71 457 108
527 5 10 9 27 9 37 0 11 4 22 8 25 4 3 14 28 22 55 7 28 17 51 22 51 4 0 8 9
8 19 0 11 5 23 10 26 6 3 10 15 10 26 0 10 5 19 10 19 6 0 10 9 10 20 0 11 5
20 10 20 6 0 10 9 10 20 0 11 5 20 10 20 6 0 10 9 10 20 0 11 4 20 9 20 5 0
11 8 14 18 7 20 37 71 54 89 6 7 15 22 18 33 3 11 10 20 14 20 4 0 13 11 19
25 7 14 16 31 22 38 5 7 34 44 64 83 60 80 126 153 204 228 30 28 73 69 95 91
23 22 89 75 147 117 58 43 110 81 116 85 10 8 29 19 77 46 12 6 24 14 27 17 3
3 28 16 55 30 28 14 52 28 53 33 2 4 12 7 23 7 10 0 19 5 19 10 0 6 9 10 20
10 11 0 20 5 20 10 0 6 9 10 19 10 11 0 23 5 26 10 3 6 17 10 31 10 13 0 24 5
24 10 0 6 9 10 19 10 11 0 23 5 26 10 3 6 17 10 31 10 13 0 24 5 24 10 0 6 13
10 29 10 17 0 32 4 35 9 3 5 18 11 33 14 16 3 64 14 108 26 114 30 235 50 345
57 52 4 101 11 108 17 30 24 -20 324 -85 512 -34 98 -42 115 -137 302 -6 13
-14 23 -18 23 -5 0 -8 7 -8 15 0 8 -4 15 -10 15 -5 0 -10 6 -10 14 0 15 -56
77 -68 75 -4 -1 -29 -5 -57 -9z"/>
<path d="M4654 6065 c-17 -9 -132 -118 -256 -243 -236 -238 -248 -254 -233
-322 8 -39 55 -85 100 -100 58 -19 97 1 207 108 l98 95 0 -664 c0 -612 1 -667
18 -698 26 -52 65 -76 122 -76 57 0 96 24 123 76 16 32 17 90 15 891 -3 851
-3 857 -24 885 -39 52 -117 75 -170 48z"/>
<path d="M5471 6063 c-19 -10 -44 -31 -55 -46 -21 -28 -21 -37 -24 -855 -2
-455 0 -847 3 -872 6 -36 16 -54 51 -87 49 -48 82 -54 138 -28 18 9 134 118
258 243 190 191 227 233 233 264 12 66 -15 117 -80 148 -69 33 -102 19 -221
-95 l-99 -95 -5 673 c-5 621 -6 675 -23 700 -39 59 -116 82 -176 50z"/>
</g>
</svg>
